<?xml version="1.0" standalone="no"?>
<!DOCTYPE svg PUBLIC "-//W3C//DTD SVG 20010904//EN"
 "http://www.w3.org/TR/2001/REC-SVG-20010904/DTD/svg10.dtd">
<svg version="1.0" xmlns="http://www.w3.org/2000/svg"
 width="20.000000pt" height="20.000000pt" viewBox="0 0 20.000000 20.000000"
 preserveAspectRatio="xMidYMid meet">

<g transform="translate(0.000000,20.000000) scale(0.100000,-0.100000)"
fill="#000000" stroke="none">
<path d="M147 193 c-4 -3 0 -15 10 -25 9 -10 11 -18 6 -18 -6 0 -16 6 -22 14
-18 21 -46 9 -91 -41 -33 -35 -41 -50 -38 -76 2 -25 8 -33 26 -35 35 -5 79 16
107 52 14 17 30 37 35 43 6 7 13 26 16 42 5 23 2 32 -14 40 -24 13 -27 13 -35
4z m-10 -70 c5 -14 -45 -73 -62 -73 -29 0 -26 23 6 56 34 33 49 38 56 17z"/>
</g>
</svg>
