<?xml version="1.0" standalone="no"?>
<!DOCTYPE svg PUBLIC "-//W3C//DTD SVG 20010904//EN"
 "http://www.w3.org/TR/2001/REC-SVG-20010904/DTD/svg10.dtd">
<svg version="1.0" xmlns="http://www.w3.org/2000/svg"
 width="20.000000pt" height="20.000000pt" viewBox="0 0 20.000000 20.000000"
 preserveAspectRatio="xMidYMid meet">

<g transform="translate(0.000000,20.000000) scale(0.100000,-0.100000)"
fill="#000000" stroke="none">
<path d="M86 178 c-3 -7 -6 -22 -8 -32 -2 -11 -16 -24 -35 -30 -40 -13 -43
-31 -5 -31 23 0 28 -5 32 -34 7 -51 30 -52 30 -2 l0 41 46 0 c56 0 57 23 1 28
-33 3 -37 6 -37 32 0 31 -17 50 -24 28z"/>
</g>
</svg>
