<?xml version="1.0" standalone="no"?>
<!DOCTYPE svg PUBLIC "-//W3C//DTD SVG 20010904//EN"
 "http://www.w3.org/TR/2001/REC-SVG-20010904/DTD/svg10.dtd">
<svg version="1.0" xmlns="http://www.w3.org/2000/svg"
 width="20.000000pt" height="20.000000pt" viewBox="0 0 20.000000 20.000000"
 preserveAspectRatio="xMidYMid meet">

<g transform="translate(0.000000,20.000000) scale(0.100000,-0.100000)"
fill="#000000" stroke="none">
<path d="M64 175 c-4 -8 -14 -15 -23 -15 -24 0 -33 -11 -22 -24 6 -7 11 -36
13 -66 l3 -55 64 -3 c35 -2 67 1 72 5 4 4 9 39 11 78 3 63 1 70 -17 73 -11 2
-24 8 -30 13 -15 15 -65 10 -71 -6z m86 -90 l0 -45 -45 0 -45 0 0 45 0 45 45
0 45 0 0 -45z"/>
<path d="M74 106 c-7 -20 2 -46 16 -46 13 0 13 47 0 55 -6 3 -13 -1 -16 -9z"/>
<path d="M114 106 c-7 -20 2 -46 16 -46 13 0 13 47 0 55 -6 3 -13 -1 -16 -9z"/>
</g>
</svg>
