<?xml version="1.0" standalone="no"?>
<!DOCTYPE svg PUBLIC "-//W3C//DTD SVG 20010904//EN"
 "http://www.w3.org/TR/2001/REC-SVG-20010904/DTD/svg10.dtd">
<svg version="1.0" xmlns="http://www.w3.org/2000/svg"
 width="20.000000pt" height="20.000000pt" viewBox="0 0 20.000000 20.000000"
 preserveAspectRatio="xMidYMid meet">

<g transform="translate(0.000000,20.000000) scale(0.100000,-0.100000)"
fill="#000000" stroke="none">
<path d="M17 164 c-16 -17 10 -24 89 -24 64 0 85 3 82 13 -5 13 -158 23 -171
11z"/>
<path d="M17 104 c-16 -17 10 -24 89 -24 64 0 85 3 82 13 -5 13 -158 23 -171
11z"/>
<path d="M17 44 c-16 -17 10 -24 89 -24 64 0 85 3 82 13 -5 13 -158 23 -171
11z"/>
</g>
</svg>
