<?xml version="1.0" standalone="no"?>
<!DOCTYPE svg PUBLIC "-//W3C//DTD SVG 20010904//EN"
 "http://www.w3.org/TR/2001/REC-SVG-20010904/DTD/svg10.dtd">
<svg version="1.0" xmlns="http://www.w3.org/2000/svg"
 width="512.000000pt" height="512.000000pt" viewBox="0 0 512.000000 512.000000"
 preserveAspectRatio="xMidYMid meet">

<g transform="translate(0.000000,512.000000) scale(0.100000,-0.100000)"
fill="#000000" stroke="none">
<path d="M4850 5113 c-8 -3 -1070 -437 -2359 -965 -1290 -527 -2363 -969
-2385 -981 -22 -12 -54 -42 -71 -65 -26 -38 -30 -52 -30 -110 0 -53 6 -77 25
-112 51 -91 -11 -76 1225 -300 611 -111 1113 -205 1117 -208 3 -4 97 -506 208
-1117 224 -1236 209 -1174 300 -1225 35 -19 59 -25 112 -25 58 0 72 4 110 30
23 17 53 49 65 71 12 22 455 1097 984 2390 707 1726 963 2362 966 2399 10 109
-85 215 -200 221 -29 2 -59 1 -67 -3z m-344 -620 c-29 -78 -1431 -3500 -1436
-3506 -3 -4 -73 361 -155 810 -81 450 -155 832 -163 848 -20 42 -61 84 -102
104 -21 11 -365 78 -852 166 -450 82 -815 151 -813 154 7 6 3507 1440 3519
1440 4 1 5 -7 2 -16z"/>
</g>
</svg>
