<?xml version="1.0" standalone="no"?>
<!DOCTYPE svg PUBLIC "-//W3C//DTD SVG 20010904//EN"
 "http://www.w3.org/TR/2001/REC-SVG-20010904/DTD/svg10.dtd">
<svg version="1.0" xmlns="http://www.w3.org/2000/svg"
 width="20.000000pt" height="20.000000pt" viewBox="0 0 20.000000 20.000000"
 preserveAspectRatio="xMidYMid meet">

<g transform="translate(0.000000,20.000000) scale(0.100000,-0.100000)"
fill="#000000" stroke="none">
<path d="M51 142 c-22 -28 -41 -53 -41 -56 0 -3 13 -6 29 -6 27 0 30 -3 33
-37 3 -35 6 -38 36 -41 31 -3 32 -2 32 32 0 32 3 36 25 36 28 0 34 24 10 38
-9 4 -23 24 -33 43 -25 49 -43 47 -91 -9z"/>
</g>
</svg>
