<?xml version="1.0" standalone="no"?>
<!DOCTYPE svg PUBLIC "-//W3C//DTD SVG 20010904//EN"
 "http://www.w3.org/TR/2001/REC-SVG-20010904/DTD/svg10.dtd">
<svg version="1.0" xmlns="http://www.w3.org/2000/svg"
 width="20.000000pt" height="20.000000pt" viewBox="0 0 20.000000 20.000000"
 preserveAspectRatio="xMidYMid meet">

<g transform="translate(0.000000,20.000000) scale(0.100000,-0.100000)"
fill="#000000" stroke="none">
<path d="M15 150 c-3 -5 10 -18 30 -27 l36 -17 -32 -27 c-46 -37 -29 -58 18
-22 l35 27 39 -21 c48 -26 64 -11 23 22 l-28 22 28 18 c19 13 24 21 17 28 -8
8 -20 4 -41 -11 l-30 -22 -40 20 c-45 23 -47 23 -55 10z"/>
</g>
</svg>
