<?xml version="1.0" standalone="no"?>
<!DOCTYPE svg PUBLIC "-//W3C//DTD SVG 20010904//EN"
 "http://www.w3.org/TR/2001/REC-SVG-20010904/DTD/svg10.dtd">
<svg version="1.0" xmlns="http://www.w3.org/2000/svg"
 width="30.000000pt" height="30.000000pt" viewBox="0 0 30.000000 30.000000"
 preserveAspectRatio="xMidYMid meet">

<g transform="translate(0.000000,30.000000) scale(0.100000,-0.100000)"
fill="#000000" stroke="none">
<path d="M34 279 c-5 -8 12 -31 51 -67 61 -57 61 -56 5 -86 -14 -8 -36 -26
-49 -40 -19 -20 -22 -29 -13 -38 9 -9 19 -5 44 18 18 17 49 40 69 51 l37 21
43 -59 c23 -32 48 -59 56 -59 21 0 16 13 -32 76 l-45 59 23 18 c53 42 77 68
77 81 0 25 -19 28 -32 6 -7 -12 -33 -35 -57 -51 -49 -34 -41 -36 -127 44 -30
28 -44 35 -50 26z"/>
</g>
</svg>
