<?xml version="1.0" standalone="no"?>
<!DOCTYPE svg PUBLIC "-//W3C//DTD SVG 20010904//EN"
 "http://www.w3.org/TR/2001/REC-SVG-20010904/DTD/svg10.dtd">
<svg version="1.0" xmlns="http://www.w3.org/2000/svg"
 width="240.000000pt" height="240.000000pt" viewBox="0 0 240.000000 240.000000"
 preserveAspectRatio="xMidYMid meet">

<g transform="translate(0.000000,240.000000) scale(0.100000,-0.100000)"
fill="#000000" stroke="none">
<path d="M10 2096 c0 -6 1182 -961 1190 -961 8 0 1190 955 1190 961 0 2 -535
4 -1190 4 -655 0 -1190 -2 -1190 -4z"/>
<path d="M0 1218 l0 -623 24 25 c80 82 626 684 626 690 0 6 -574 476 -632 518
-17 13 -18 -9 -18 -610z"/>
<path d="M2075 1581 c-176 -143 -321 -263 -322 -268 -2 -5 142 -168 319 -362
l323 -352 3 310 c1 171 1 451 0 621 l-3 310 -320 -259z"/>
<path d="M406 742 l-400 -437 597 -3 c328 -1 866 -1 1194 0 l597 3 -399 435
c-219 239 -402 436 -406 438 -4 2 -91 -65 -193 -147 -102 -83 -190 -151 -196
-151 -6 0 -94 68 -196 150 -101 83 -188 150 -192 149 -4 0 -187 -197 -406
-437z"/>
</g>
</svg>
