<?xml version="1.0" standalone="no"?>
<!DOCTYPE svg PUBLIC "-//W3C//DTD SVG 20010904//EN"
 "http://www.w3.org/TR/2001/REC-SVG-20010904/DTD/svg10.dtd">
<svg version="1.0" xmlns="http://www.w3.org/2000/svg"
 width="512.000000pt" height="512.000000pt" viewBox="0 0 512.000000 512.000000"
 preserveAspectRatio="xMidYMid meet">

<g transform="translate(0.000000,512.000000) scale(0.100000,-0.100000)"
fill="#000000" stroke="none">
<path d="M483 4270 c-32 -13 -43 -41 -43 -109 0 -68 21 -101 63 -101 43 0 67
27 67 76 l0 45 68 -3 67 -3 3 -87 c3 -86 4 -88 32 -103 36 -19 265 -21 305 -3
30 13 34 28 37 123 l3 70 70 0 70 0 3 -70 c3 -95 7 -110 37 -123 34 -16 266
-16 300 0 30 13 34 28 37 123 l3 70 65 0 65 0 3 -201 2 -201 -86 -97 -86 -96
-413 0 -413 0 -86 95 -86 95 0 59 c0 62 -11 84 -50 96 -20 6 -59 -9 -72 -29
-11 -16 -10 -95 2 -138 7 -23 45 -74 105 -142 l95 -107 -2 -1117 -3 -1117 -50
-5 c-61 -6 -112 -35 -142 -80 -21 -30 -23 -45 -23 -162 0 -74 5 -138 11 -150
27 -50 -72 -48 2124 -48 2196 0 2097 -2 2124 48 6 12 11 76 11 150 0 117 -2
132 -23 162 -30 45 -81 74 -142 80 l-50 5 -3 1119 -2 1119 67 74 c38 42 83 93
100 116 l33 40 0 246 c0 135 -4 251 -8 257 -17 27 -56 34 -175 34 -68 0 -138
-5 -156 -11 -36 -13 -40 -25 -43 -124 l-3 -70 -62 -3 -63 -3 0 84 c0 120 -2
121 -185 125 -116 3 -149 0 -174 -12 -30 -16 -30 -17 -33 -104 l-3 -87 -62 -3
-63 -3 0 79 c0 64 -4 85 -19 103 -19 23 -23 24 -176 24 -211 0 -195 22 -195
-277 0 -193 3 -234 17 -261 9 -18 56 -77 105 -131 l88 -100 0 -77 0 -78 -174
-3 c-219 -4 -214 -1 -218 -132 l-3 -91 -120 0 -120 0 -5 88 c-5 82 -7 91 -33
113 -28 24 -31 24 -228 24 -269 0 -266 1 -271 -150 l-3 -75 -120 0 -120 0 -3
75 c-5 148 -8 150 -232 150 l-160 0 0 81 0 82 83 91 c128 140 117 103 117 393
l0 252 -31 16 c-25 13 -57 16 -169 13 -175 -4 -178 -6 -182 -122 l-3 -81 -60
0 -60 0 -3 81 c-4 119 -5 119 -197 119 -192 0 -193 0 -197 -119 l-3 -81 -60 0
-60 0 -3 81 c-4 117 -6 118 -186 121 -77 1 -151 -2 -163 -7z m3037 -169 c0
-63 4 -84 19 -102 19 -23 24 -24 169 -24 189 0 190 1 194 119 l3 81 68 3 67 3
0 -70 c0 -133 17 -144 208 -139 166 4 170 7 174 122 l3 81 65 0 65 0 3 -200 2
-200 -86 -98 -87 -97 -416 1 -416 1 -82 93 -83 93 0 206 0 206 65 0 65 0 0
-79z m-1987 -1719 c1 -600 -1 -1093 -5 -1095 -5 -1 -177 -1 -383 1 l-375 2 0
1089 c0 598 3 1091 7 1094 4 4 175 6 380 5 l373 -3 3 -1093z m2817 3 l0 -1095
-376 -2 c-207 -2 -378 -1 -380 1 -7 7 -4 2177 3 2184 3 4 174 7 380 7 l373 0
0 -1095z m-2420 765 l5 -95 35 -18 c31 -16 58 -17 222 -15 180 3 188 4 210 26
20 20 23 34 25 110 l2 87 135 3 136 3 0 -85 c0 -75 3 -88 24 -113 l24 -28 172
-3 c272 -6 280 -2 280 138 l0 91 133 -3 132 -3 3 -974 c1 -536 -1 -977 -5
-980 -5 -4 -79 -5 -165 -3 l-158 3 0 131 c0 146 -8 168 -61 168 -53 0 -59 -18
-59 -166 0 -82 -4 -134 -10 -134 -5 0 -92 -1 -192 -1 l-183 0 -3 532 -2 532
47 -7 c117 -16 258 -118 310 -225 25 -52 27 -67 31 -213 4 -172 8 -182 63
-180 59 2 61 9 57 191 -5 216 -18 253 -127 362 -87 87 -177 136 -298 163 -287
64 -602 -74 -696 -304 -21 -53 -22 -68 -25 -452 l-3 -397 -160 -3 c-89 -2
-163 -1 -165 1 -2 2 -4 445 -4 983 l0 979 133 -3 132 -3 5 -95z m568 -1330
l-3 -531 -182 0 c-101 0 -188 1 -194 1 -7 0 -9 121 -7 388 4 442 2 434 95 533
70 75 190 138 266 139 l27 0 -2 -530z m2067 -674 c12 -18 15 -46 13 -117 l-3
-94 -2010 0 -2010 0 -3 94 c-2 71 1 99 13 117 l15 24 1985 0 1985 0 15 -24z"/>
<path d="M3686 3814 c-43 -42 -1 -84 84 -84 63 0 100 20 100 54 0 37 -19 46
-96 46 -53 0 -77 -4 -88 -16z"/>
<path d="M4127 3812 c-40 -44 -2 -82 80 -82 90 0 136 38 97 81 -24 27 -153 28
-177 1z"/>
<path d="M1075 3135 c-22 -8 -57 -32 -77 -54 l-38 -40 0 -119 c0 -160 -5 -156
184 -160 127 -2 144 -1 174 17 l32 21 0 110 c0 123 -9 150 -60 193 -54 46
-139 59 -215 32z m131 -110 c22 -22 25 -32 22 -93 l-3 -67 -70 0 -70 0 -3 71
c-3 68 -1 73 24 93 35 28 69 27 100 -4z"/>
<path d="M1083 2568 c-31 -15 -39 -45 -17 -69 14 -15 31 -19 89 -19 58 0 75 4
89 19 22 25 14 54 -20 69 -31 15 -111 14 -141 0z"/>
<path d="M913 2278 c-45 -21 -40 -68 8 -88 70 -30 191 13 163 58 -25 39 -118
55 -171 30z"/>
<path d="M1258 2279 c-50 -19 -48 -70 4 -88 99 -35 205 16 150 72 -24 24 -111
33 -154 16z"/>
<path d="M1090 1989 c-19 -6 -50 -22 -68 -35 -53 -41 -62 -70 -62 -193 0 -106
1 -110 26 -130 24 -19 40 -21 169 -21 129 0 145 2 169 21 25 20 26 23 26 133
0 101 -2 117 -23 147 -44 66 -155 102 -237 78z m123 -121 c14 -17 17 -35 15
-87 l-3 -66 -72 -3 -73 -3 0 66 c0 37 5 75 11 86 22 43 89 46 122 7z"/>
<path d="M3908 3140 c-47 -14 -92 -47 -113 -82 -15 -25 -20 -56 -23 -134 -4
-96 -3 -102 21 -130 25 -29 26 -29 147 -32 219 -6 230 1 230 153 0 119 -10
149 -62 188 -59 44 -133 57 -200 37z m113 -109 c21 -17 24 -28 24 -93 l0 -73
-70 0 -70 0 -3 60 c-4 76 2 99 30 113 35 16 63 14 89 -7z"/>
<path d="M3900 2567 c-27 -13 -36 -43 -21 -67 11 -15 112 -29 151 -20 12 3 29
15 37 27 14 20 13 24 -11 48 -21 20 -35 25 -78 25 -29 0 -64 -6 -78 -13z"/>
<path d="M3730 2278 c-18 -10 -25 -22 -25 -43 0 -36 31 -55 92 -55 84 0 129
38 94 81 -14 18 -30 23 -77 26 -36 2 -69 -1 -84 -9z"/>
<path d="M4078 2279 c-29 -11 -42 -36 -33 -62 17 -44 153 -49 187 -7 45 56
-60 103 -154 69z"/>
<path d="M3901 1986 c-55 -18 -108 -69 -121 -116 -5 -19 -10 -72 -10 -118 0
-79 1 -85 30 -113 l30 -30 149 3 c198 4 194 1 189 158 -3 101 -6 119 -26 148
-47 65 -155 95 -241 68z m109 -101 c33 -17 43 -52 38 -125 l-3 -45 -72 -3 -73
-3 0 74 c0 75 9 95 50 110 24 9 29 8 60 -8z"/>
<path d="M2037 2872 c-42 -46 -3 -82 90 -82 50 0 67 4 83 20 11 11 20 25 20
30 0 6 -9 19 -20 30 -28 28 -149 29 -173 2z"/>
<path d="M2482 2874 c-55 -38 -10 -84 83 -84 66 0 105 18 105 50 0 32 -39 50
-105 50 -39 0 -69 -6 -83 -16z"/>
<path d="M2920 2870 c-11 -11 -20 -24 -20 -30 0 -5 9 -19 20 -30 16 -16 33
-20 83 -20 93 0 136 41 89 83 -28 26 -145 24 -172 -3z"/>
<path d="M1822 2654 c-27 -18 -28 -45 -4 -67 14 -13 38 -17 90 -17 64 0 73 2
87 24 19 28 12 50 -21 65 -37 16 -126 14 -152 -5z"/>
<path d="M2262 2654 c-27 -18 -28 -45 -4 -67 27 -25 153 -24 175 1 22 24 21
38 -3 62 -26 26 -133 28 -168 4z"/>
<path d="M2700 2650 c-25 -25 -25 -42 -2 -63 27 -25 153 -24 175 1 42 46 3 82
-90 82 -50 0 -67 -4 -83 -20z"/>
<path d="M3153 2658 c-30 -15 -36 -36 -18 -64 14 -22 23 -24 89 -24 58 0 76 4
89 18 41 45 2 82 -83 81 -30 0 -65 -5 -77 -11z"/>
<path d="M867 3812 c-42 -46 -3 -82 90 -82 50 0 67 4 83 20 25 25 25 42 2 63
-27 25 -153 24 -175 -1z"/>
<path d="M1307 3812 c-22 -24 -21 -38 3 -62 16 -16 33 -20 85 -20 52 0 69 4
85 20 25 25 25 42 2 63 -27 25 -153 24 -175 -1z"/>
</g>
</svg>
