<?xml version="1.0" standalone="no"?>
<!DOCTYPE svg PUBLIC "-//W3C//DTD SVG 20010904//EN"
 "http://www.w3.org/TR/2001/REC-SVG-20010904/DTD/svg10.dtd">
<svg version="1.0" xmlns="http://www.w3.org/2000/svg"
 width="512.000000pt" height="512.000000pt" viewBox="0 0 512.000000 512.000000"
 preserveAspectRatio="xMidYMid meet">

<g transform="translate(0.000000,512.000000) scale(0.100000,-0.100000)"
fill="#000000" stroke="none">
<path d="M83 5113 c-13 -2 -32 -16 -43 -30 -17 -22 -20 -40 -20 -139 0 -110 1
-113 26 -133 35 -27 57 -26 90 3 24 20 28 32 32 90 l4 66 79 0 79 0 0 -115 c0
-185 12 -195 227 -195 135 0 190 11 209 41 5 8 11 70 14 139 l5 125 81 3 82 3
3 -125 c4 -122 5 -126 32 -153 l27 -28 170 0 170 0 27 28 c27 27 28 31 31 152
l4 125 79 0 79 0 0 -302 0 -303 -103 -142 -102 -143 -496 0 -497 0 -99 138
-98 137 -5 97 c-5 83 -9 101 -27 120 -27 26 -75 28 -103 3 -18 -16 -20 -31
-20 -129 0 -134 -1 -131 138 -324 l102 -141 0 -1660 0 -1661 -31 0 c-60 0
-113 -23 -159 -70 -63 -62 -70 -94 -70 -309 0 -199 5 -222 57 -257 27 -19 89
-19 2503 -19 2414 0 2476 0 2503 19 52 35 57 58 57 257 0 215 -7 247 -70 309
-47 48 -99 70 -164 70 l-36 0 0 1656 0 1656 111 154 c62 85 118 172 125 192
16 46 20 705 4 747 -18 47 -64 57 -241 53 -208 -4 -202 1 -209 -176 l-5 -127
-75 0 -75 0 -5 127 c-7 178 0 172 -214 176 -245 5 -256 -3 -256 -193 l0 -115
-75 0 -75 0 0 115 c0 190 -12 199 -257 193 -144 -3 -153 -4 -177 -27 l-26 -24
0 -364 c0 -286 3 -371 14 -397 7 -18 61 -98 120 -179 l106 -147 0 -120 0 -120
-190 0 c-271 0 -280 -7 -280 -215 l0 -115 -150 0 -150 0 0 125 c0 206 2 205
-315 205 -311 0 -315 -3 -315 -215 l0 -115 -150 0 -150 0 0 130 c0 129 0 130
-29 162 l-29 33 -206 3 -206 3 0 115 0 114 114 159 c62 87 118 173 125 191 15
44 16 723 0 752 -20 37 -69 48 -219 48 -142 0 -196 -10 -216 -41 -5 -8 -11
-70 -14 -139 l-5 -125 -75 0 -75 0 -3 126 c-2 120 -4 127 -28 150 -25 23 -29
24 -205 24 l-179 0 -27 -28 c-27 -27 -28 -31 -31 -152 l-4 -125 -74 0 -74 0 0
115 c0 133 -11 167 -61 184 -30 10 -287 14 -336 4z m3627 -264 c0 -67 5 -129
11 -141 20 -37 69 -48 214 -48 145 0 194 11 214 48 6 12 11 74 11 141 l0 121
84 0 84 0 4 -125 c3 -121 4 -125 31 -152 l27 -28 170 0 170 0 27 28 c27 27 28
31 31 152 l4 125 79 0 79 0 0 -302 0 -301 -102 -143 -103 -144 -496 0 -497 0
-101 140 -101 140 0 305 0 305 80 0 80 0 0 -121z m-2390 -2544 l0 -1625 -455
0 -455 0 0 1618 c0 890 3 1622 7 1625 3 4 208 7 455 7 l448 0 0 -1625z m3380
0 l0 -1625 -455 0 -455 0 0 1618 c0 890 3 1622 7 1625 3 4 208 7 455 7 l448 0
0 -1625z m-2910 1166 c0 -129 6 -157 41 -190 22 -20 33 -21 262 -21 l239 0 29
29 29 29 0 136 0 136 164 0 164 0 4 -134 c3 -134 3 -135 32 -165 l30 -31 239
0 239 0 29 29 29 29 0 136 0 136 160 0 160 0 0 -1455 0 -1455 -195 0 -195 0 0
200 0 201 -26 26 c-20 20 -31 24 -57 19 -63 -12 -67 -26 -67 -247 l0 -199
-230 0 -230 0 0 790 c0 777 0 790 20 790 35 0 144 -45 203 -84 72 -48 137
-121 176 -200 53 -105 61 -158 61 -387 0 -194 1 -208 21 -233 26 -33 73 -35
106 -4 23 21 23 25 23 237 0 182 -3 229 -20 300 -48 198 -183 369 -362 455
-209 101 -408 100 -617 -1 -78 -37 -109 -59 -176 -127 -67 -66 -91 -99 -129
-176 -75 -153 -76 -157 -76 -797 l0 -563 -200 0 -200 0 0 1448 c0 797 3 1452
7 1455 3 4 75 7 160 7 l153 0 0 -119z m690 -2001 l0 -790 -230 0 -230 0 0 558
c0 467 2 568 15 617 34 134 114 249 222 321 61 40 162 83 201 83 l22 1 0 -790z
m2465 -985 c24 -24 25 -28 25 -180 l0 -155 -2410 0 -2410 0 0 155 c0 152 1
156 25 180 l24 25 2361 0 2361 0 24 -25z"/>
<path d="M3933 4450 c-32 -13 -56 -55 -48 -82 16 -50 33 -58 120 -58 72 0 84
3 103 23 27 29 28 67 3 98 -16 20 -29 24 -87 26 -38 2 -79 -1 -91 -7z"/>
<path d="M4439 4431 c-34 -35 -36 -59 -8 -95 19 -24 26 -26 103 -26 73 0 85 3
104 23 22 23 27 51 16 82 -11 27 -60 45 -124 45 -55 0 -65 -3 -91 -29z"/>
<path d="M762 3414 c-63 -31 -107 -88 -123 -158 -6 -29 -9 -109 -7 -189 l3
-139 33 -29 32 -29 169 0 c191 0 210 6 232 79 17 58 7 295 -15 346 -55 128
-200 181 -324 119z m165 -148 c27 -23 28 -28 31 -135 l4 -111 -91 0 -91 0 0
104 c0 98 2 106 26 135 33 39 80 42 121 7z"/>
<path d="M770 2570 c-30 -30 -27 -83 6 -109 21 -17 41 -21 96 -21 60 0 72 3
93 25 32 31 33 74 2 103 -20 19 -35 22 -100 22 -64 0 -80 -3 -97 -20z"/>
<path d="M565 2135 c-14 -13 -25 -36 -25 -50 0 -14 11 -37 25 -50 21 -22 33
-25 98 -25 93 0 121 18 121 75 0 57 -28 75 -121 75 -65 0 -77 -3 -98 -25z"/>
<path d="M975 2135 c-14 -13 -25 -36 -25 -50 0 -14 11 -37 25 -50 21 -22 33
-25 97 -25 82 0 112 14 122 55 7 29 -15 79 -39 89 -9 3 -48 6 -86 6 -61 0 -73
-3 -94 -25z"/>
<path d="M774 1711 c-59 -27 -112 -86 -129 -144 -10 -35 -15 -96 -15 -195 l0
-144 34 -34 34 -34 170 0 c156 0 171 2 195 21 40 31 50 80 45 230 -5 156 -20
202 -86 261 -66 59 -168 75 -248 39z m153 -155 c27 -23 28 -28 31 -135 l4
-111 -91 0 -91 0 0 104 c0 98 2 106 26 135 33 39 80 42 121 7z"/>
<path d="M4142 3414 c-106 -53 -131 -113 -132 -317 0 -226 1 -227 246 -227
l166 0 29 29 29 29 0 169 c0 195 -9 225 -80 286 -75 64 -170 75 -258 31z m165
-148 c27 -23 28 -28 31 -135 l4 -111 -91 0 -91 0 0 101 c0 100 8 132 39 156
27 20 77 15 108 -11z"/>
<path d="M4149 2572 c-33 -27 -30 -78 5 -109 23 -19 38 -23 97 -23 61 0 73 3
94 25 32 31 33 74 2 103 -20 19 -35 22 -99 22 -59 0 -81 -4 -99 -18z"/>
<path d="M3945 2135 c-14 -13 -25 -36 -25 -50 0 -14 11 -37 25 -50 21 -22 33
-25 98 -25 93 0 121 18 121 75 0 57 -28 75 -121 75 -65 0 -77 -3 -98 -25z"/>
<path d="M4355 2135 c-34 -33 -33 -77 1 -104 21 -17 41 -21 95 -21 84 0 98 5
114 43 15 36 3 82 -25 97 -10 6 -51 10 -90 10 -62 0 -74 -3 -95 -25z"/>
<path d="M4142 1704 c-59 -29 -94 -70 -117 -133 -21 -60 -21 -320 -1 -360 24
-45 52 -51 232 -51 l166 0 29 29 29 29 0 169 c0 195 -9 225 -80 286 -75 64
-170 75 -258 31z m155 -139 c30 -21 43 -74 43 -172 l0 -83 -90 0 -90 0 0 101
c0 100 8 132 39 156 22 17 72 16 98 -2z"/>
<path d="M1936 3039 c-34 -27 -36 -79 -4 -109 18 -17 35 -20 100 -20 92 0 118
17 118 74 0 53 -36 76 -120 76 -53 0 -73 -4 -94 -21z"/>
<path d="M2466 3039 c-33 -26 -36 -79 -6 -109 17 -17 33 -20 100 -20 94 0 120
16 120 74 0 53 -36 76 -120 76 -53 0 -73 -4 -94 -21z"/>
<path d="M2996 3039 c-33 -26 -36 -79 -6 -109 17 -17 33 -20 98 -20 69 0 81 3
100 23 31 33 29 80 -4 106 -21 17 -41 21 -94 21 -53 0 -73 -4 -94 -21z"/>
<path d="M1687 2723 c-19 -5 -47 -52 -47 -78 0 -9 11 -27 25 -40 21 -22 33
-25 100 -25 67 0 79 3 100 25 14 13 25 36 25 50 0 14 -11 37 -25 50 -21 22
-32 25 -92 24 -37 -1 -76 -3 -86 -6z"/>
<path d="M2213 2720 c-47 -20 -56 -78 -18 -115 21 -22 33 -25 100 -25 67 0 79
3 100 25 30 29 32 64 6 96 -16 20 -29 24 -92 26 -41 2 -84 -1 -96 -7z"/>
<path d="M2743 2720 c-47 -20 -56 -78 -18 -115 21 -22 33 -25 100 -25 68 0 79
3 102 26 20 20 24 31 19 57 -10 51 -28 61 -109 64 -39 2 -82 -1 -94 -7z"/>
<path d="M3255 2705 c-14 -13 -25 -36 -25 -50 0 -14 11 -37 25 -50 21 -22 33
-25 100 -25 67 0 79 3 100 25 28 27 30 42 14 78 -16 34 -49 47 -125 47 -56 0
-68 -4 -89 -25z"/>
<path d="M555 4451 c-52 -22 -66 -90 -26 -123 35 -27 173 -26 201 2 25 25 26
71 1 101 -16 20 -29 24 -87 26 -38 2 -78 -1 -89 -6z"/>
<path d="M1085 4451 c-52 -22 -66 -90 -26 -123 18 -14 40 -18 100 -18 68 0 80
3 99 23 27 29 28 67 3 98 -16 20 -29 24 -87 26 -38 2 -78 -1 -89 -6z"/>
</g>
</svg>
