<?xml version="1.0" standalone="no"?>
<!DOCTYPE svg PUBLIC "-//W3C//DTD SVG 20010904//EN"
 "http://www.w3.org/TR/2001/REC-SVG-20010904/DTD/svg10.dtd">
<svg version="1.0" xmlns="http://www.w3.org/2000/svg"
 width="53.000000pt" height="53.000000pt" viewBox="0 0 53.000000 53.000000"
 preserveAspectRatio="xMidYMid meet">

<g transform="translate(0.000000,53.000000) scale(0.100000,-0.100000)"
fill="#000000" stroke="none">
<path d="M350 455 c-11 -13 -10 -14 4 -9 9 3 16 10 16 15 0 13 -6 11 -20 -6z"/>
<path d="M130 451 c0 -5 7 -12 16 -15 14 -5 15 -4 4 9 -14 17 -20 19 -20 6z"/>
<path d="M315 404 c-9 -15 -12 -23 -6 -20 11 7 35 46 28 46 -3 0 -12 -12 -22
-26z"/>
<path d="M170 416 c0 -2 8 -10 18 -17 15 -13 16 -12 3 4 -13 16 -21 21 -21 13z"/>
<path d="M131 360 c-1 -14 -8 -34 -16 -44 -19 -25 -19 -86 0 -112 8 -12 11
-24 8 -28 -3 -3 -1 -6 5 -6 15 0 16 17 2 25 -17 10 -11 23 13 28 19 4 18 4 -5
6 -25 1 -28 5 -28 34 0 18 7 43 16 55 8 12 13 32 11 45 -4 21 -4 20 -6 -3z"/>
<path d="M210 363 c8 -18 19 -23 43 -22 l32 2 -30 4 c-16 3 -35 12 -43 21 -11
15 -12 14 -2 -5z"/>
<path d="M360 326 c0 -2 8 -10 18 -17 15 -13 16 -12 3 4 -13 16 -21 21 -21 13z"/>
<path d="M392 255 c-11 -13 -10 -15 7 -15 14 0 19 5 15 15 -7 18 -6 18 -22 0z"/>
<path d="M240 229 c-12 -21 -11 -22 2 -12 10 9 18 9 25 2 8 -8 16 -8 30 0 16
11 16 11 -4 6 -14 -4 -25 0 -31 11 -9 15 -11 15 -22 -7z"/>
<path d="M458 233 c7 -3 16 -2 19 1 4 3 -2 6 -13 5 -11 0 -14 -3 -6 -6z"/>
<path d="M393 206 c-9 -11 -5 -20 20 -42 28 -25 29 -26 9 -3 -14 16 -20 32
-16 42 7 20 3 21 -13 3z"/>
<path d="M350 159 c-22 -18 -22 -19 -3 -10 12 6 25 16 28 21 9 15 3 12 -25
-11z"/>
<path d="M189 127 c5 -5 30 -7 57 -5 l49 3 -57 5 c-31 3 -53 1 -49 -3z"/>
</g>
</svg>
