<?xml version="1.0" standalone="no"?>
<!DOCTYPE svg PUBLIC "-//W3C//DTD SVG 20010904//EN"
 "http://www.w3.org/TR/2001/REC-SVG-20010904/DTD/svg10.dtd">
<svg version="1.0" xmlns="http://www.w3.org/2000/svg"
 width="276.000000pt" height="260.000000pt" viewBox="0 0 276.000000 260.000000"
 preserveAspectRatio="xMidYMid meet">

<g transform="translate(0.000000,260.000000) scale(0.100000,-0.100000)"
fill="#000000" stroke="none">
<path d="M108 2235 c-3 -3 -2 -29 3 -58 4 -28 10 -335 14 -682 8 -682 12 -776
34 -783 12 -4 13 12 8 94 -4 55 -10 376 -13 714 -3 338 -9 637 -13 664 -5 45
-19 65 -33 51z"/>
<path d="M600 1399 c-36 -22 -88 -64 -117 -93 l-52 -53 2 48 c1 26 -2 49 -8
51 -15 3 -22 -45 -24 -146 l-1 -89 42 -40 c23 -22 67 -51 97 -64 48 -22 67
-24 131 -21 83 5 126 23 174 72 48 49 56 70 56 141 0 133 -81 236 -184 234
-41 0 -64 -8 -116 -40z m190 -19 c53 -42 80 -102 80 -176 0 -55 -3 -64 -37
-104 -91 -106 -248 -108 -362 -5 -37 34 -41 42 -41 87 0 31 4 47 10 43 6 -4
21 6 33 22 35 44 103 104 155 134 65 38 113 38 162 -1z"/>
<path d="M1340 1397 c-36 -18 -79 -37 -95 -44 -89 -37 -135 -78 -135 -123 0
-65 77 -100 223 -100 94 0 123 9 155 49 10 13 12 11 7 -14 -2 -17 -11 -111
-20 -210 -29 -342 -45 -430 -90 -488 -40 -53 -87 -77 -148 -77 -40 0 -55 7
-124 59 -43 32 -106 84 -141 115 -63 56 -76 63 -86 47 -8 -12 162 -159 259
-224 72 -49 177 -33 245 36 68 70 73 93 117 554 21 232 24 296 15 305 -20 20
-47 -4 -50 -45 -2 -27 -11 -42 -32 -57 -58 -41 -280 -17 -296 33 -6 20 13 67
28 67 5 0 24 11 41 24 18 14 46 28 62 32 17 4 56 20 87 35 81 41 144 40 183
-1 16 -16 32 -30 37 -30 19 0 6 34 -23 61 -28 26 -38 29 -93 28 -47 0 -76 -8
-126 -32z"/>
<path d="M2027 1419 c-11 -6 -30 -9 -43 -6 -15 2 -30 -3 -40 -14 -10 -11 -30
-19 -45 -19 -34 0 -49 -19 -20 -27 25 -6 26 -19 6 -60 -23 -46 -54 -172 -55
-219 0 -53 23 -97 67 -131 54 -41 98 -53 204 -53 l95 0 33 37 c59 67 101 177
101 266 0 75 -70 185 -142 223 -32 16 -135 18 -161 3z m178 -60 c24 -22 56
-61 71 -86 23 -40 26 -54 21 -102 -7 -77 -42 -166 -84 -212 l-35 -39 -83 0
c-88 0 -142 16 -183 53 -32 29 -52 70 -52 104 1 36 35 166 55 206 8 16 15 36
15 42 0 31 100 72 178 74 48 1 56 -2 97 -40z"/>
</g>
</svg>
