<?xml version="1.0" standalone="no"?>
<!DOCTYPE svg PUBLIC "-//W3C//DTD SVG 20010904//EN"
 "http://www.w3.org/TR/2001/REC-SVG-20010904/DTD/svg10.dtd">
<svg version="1.0" xmlns="http://www.w3.org/2000/svg"
 width="276.000000pt" height="260.000000pt" viewBox="0 0 276.000000 260.000000"
 preserveAspectRatio="xMidYMid meet">

<g transform="translate(0.000000,260.000000) scale(0.100000,-0.100000)"
fill="#000000" stroke="none">
<path d="M1782 2338 c-7 -7 -12 -17 -12 -22 0 -6 -22 -39 -48 -72 -51 -66 -66
-91 -125 -199 -22 -38 -51 -83 -67 -100 -43 -48 -88 -119 -102 -163 -12 -39
-16 -42 -63 -52 -91 -20 -140 -22 -200 -10 -70 14 -79 20 -108 73 -12 22 -29
52 -37 67 -85 154 -340 419 -380 395 -9 -6 -11 -85 -9 -301 l4 -293 -27 -28
c-14 -15 -45 -66 -69 -112 l-42 -83 -1 -142 c-1 -77 2 -151 7 -162 7 -19 2
-22 -40 -32 -86 -19 -268 -74 -281 -85 -29 -23 7 -27 69 -8 276 85 269 84 287
39 22 -55 44 -92 69 -119 l24 -27 -29 -20 c-38 -28 -212 -112 -229 -112 -27 0
-76 -31 -65 -42 18 -18 230 69 309 128 l32 24 114 -115 c63 -63 120 -115 126
-115 6 0 11 -4 11 -8 0 -5 24 -16 53 -25 105 -33 429 -19 506 23 13 6 51 21
84 32 102 33 224 96 235 121 2 4 8 7 14 7 6 0 26 11 44 25 18 14 36 25 41 25
4 0 21 11 37 25 l29 25 86 -84 c146 -142 161 -153 161 -122 0 8 -51 62 -114
122 l-113 107 33 83 c24 60 34 99 34 139 0 32 4 55 11 55 21 0 206 -42 272
-62 37 -11 71 -18 74 -14 12 12 -21 32 -77 49 -65 18 -248 57 -272 57 -11 0
-20 10 -23 28 -12 54 -48 147 -64 167 -9 11 -34 46 -55 78 -22 32 -49 65 -60
73 -21 14 -21 22 -24 387 -2 204 -7 375 -11 380 -4 4 -12 2 -19 -5z m-4 -742
c-4 -5 14 -30 41 -55 26 -25 59 -64 72 -86 13 -22 28 -44 35 -50 14 -12 41
-81 53 -135 l9 -39 -57 -3 c-42 -2 -56 -7 -56 -18 0 -12 12 -14 63 -12 l62 4
0 -51 c0 -46 -39 -170 -61 -195 -5 -6 -23 6 -43 27 -18 20 -36 33 -40 30 -13
-13 -5 -32 26 -62 31 -30 31 -31 13 -51 -10 -11 -24 -20 -31 -20 -7 0 -25 -10
-41 -22 -15 -13 -37 -29 -48 -35 -101 -63 -140 -83 -205 -107 -41 -15 -91 -35
-110 -43 -67 -29 -164 -43 -306 -43 -199 0 -210 5 -357 150 l-118 116 28 15
c42 21 57 39 46 50 -7 7 -23 2 -48 -16 l-39 -26 -31 31 c-18 17 -37 42 -44 56
-6 13 -16 35 -23 49 -6 14 -9 27 -7 30 3 2 53 7 112 11 71 5 106 11 104 18 -3
7 -45 11 -122 11 l-119 0 -9 35 c-5 19 -7 88 -4 153 6 122 4 115 74 249 8 15
27 41 43 58 l30 32 -7 286 -6 286 91 -78 c51 -43 102 -95 114 -115 12 -20 46
-67 75 -105 29 -37 53 -73 53 -80 0 -7 12 -28 26 -47 14 -19 31 -47 38 -64 16
-38 45 -63 55 -47 4 8 18 8 46 2 59 -14 99 -12 207 7 89 16 97 19 92 38 -9 34
21 89 107 197 15 18 43 63 62 100 20 37 41 73 47 80 6 7 25 36 42 63 65 101
62 109 68 -248 3 -177 2 -326 -2 -331z"/>
<path d="M1463 1314 c-9 -25 21 -69 50 -72 24 -3 27 0 27 26 0 16 -7 35 -16
43 -21 17 -55 19 -61 3z"/>
<path d="M895 1292 c-8 -9 -6 -60 4 -66 5 -3 23 -3 41 0 28 6 31 10 28 38 -3
27 -7 31 -35 32 -18 1 -35 -1 -38 -4z"/>
<path d="M1217 1254 c-4 -4 -7 -24 -7 -44 0 -36 -27 -83 -79 -137 -37 -39 -85
-25 -104 30 -8 23 -27 13 -27 -14 0 -35 44 -69 89 -69 43 0 77 29 132 109 19
30 29 37 38 28 6 -6 11 -16 11 -23 0 -6 18 -28 40 -48 51 -46 89 -47 151 -7
61 41 74 53 88 79 25 46 -2 41 -62 -13 -34 -31 -72 -58 -85 -62 -53 -13 -117
59 -117 132 0 37 -2 40 -30 43 -17 2 -34 0 -38 -4z"/>
</g>
</svg>
