<?xml version="1.0" standalone="no"?>
<!DOCTYPE svg PUBLIC "-//W3C//DTD SVG 20010904//EN"
 "http://www.w3.org/TR/2001/REC-SVG-20010904/DTD/svg10.dtd">
<svg version="1.0" xmlns="http://www.w3.org/2000/svg"
 width="170.000000pt" height="57.000000pt" viewBox="0 0 170.000000 57.000000"
 preserveAspectRatio="xMidYMid meet">

<g transform="translate(0.000000,57.000000) scale(0.100000,-0.100000)"
fill="#000000" stroke="none">
<path d="M1436 542 c-2 -4 2 -34 9 -67 8 -32 12 -62 10 -66 -3 -4 -32 -10 -65
-14 -62 -7 -100 -29 -81 -48 6 -6 20 -6 42 2 17 6 49 11 70 11 l39 0 0 -64 c0
-72 14 -120 33 -113 23 7 3 294 -25 350 -9 18 -24 22 -32 9z"/>
<path d="M763 525 c-58 -25 -72 -89 -27 -124 15 -12 33 -21 40 -21 10 0 14
-13 14 -39 0 -41 -11 -51 -54 -51 -29 0 -39 -10 -25 -27 20 -24 224 -4 224 22
0 6 -23 11 -51 13 -51 3 -52 3 -56 39 -4 29 0 37 20 46 13 6 30 23 38 38 44
87 -26 147 -123 104z m95 -57 c4 -36 -32 -61 -73 -50 -17 5 -32 16 -34 27 -5
26 37 56 74 53 24 -3 31 -8 33 -30z"/>
<path d="M396 303 c6 -214 8 -227 27 -221 8 3 14 35 17 94 l5 89 75 3 c127 5
121 42 -7 42 l-71 0 -7 78 c-8 95 -13 112 -30 112 -12 0 -13 -32 -9 -197z"/>
<path d="M954 384 c4 -66 10 -127 13 -137 9 -33 28 -11 33 39 5 47 6 49 40 54
50 7 47 34 -5 40 -39 5 -40 6 -50 59 -6 30 -16 56 -24 59 -11 4 -12 -16 -7
-114z"/>
<path d="M1216 448 c-9 -12 -16 -28 -16 -36 0 -7 -11 -35 -25 -62 -14 -27 -25
-56 -25 -65 0 -24 25 -18 40 10 16 31 32 31 70 4 18 -14 35 -19 47 -15 19 8
21 6 -56 69 -15 12 -20 24 -16 35 4 9 9 32 12 50 7 38 -8 43 -31 10z"/>
<path d="M147 453 c-3 -5 -2 -75 2 -158 l6 -150 100 0 100 0 -2 105 c-1 58 -8
123 -15 145 -11 33 -19 41 -53 51 -45 14 -132 18 -138 7z m147 -54 c10 -9 35
-188 28 -207 -3 -9 -23 -12 -71 -10 l-66 3 -3 114 c-2 77 1 117 9 121 12 8 88
-8 103 -21z"/>
<path d="M903 196 c-53 -24 -59 -103 -11 -139 38 -28 138 -36 161 -13 20 21
40 91 32 115 -12 39 -126 62 -182 37z m122 -38 c27 -12 30 -23 15 -62 -8 -22
-16 -26 -49 -26 -63 0 -91 15 -91 48 0 15 5 33 12 40 15 15 79 16 113 0z"/>
<path d="M1329 179 c-14 -14 -19 -30 -17 -56 3 -41 33 -67 85 -78 40 -8 69 18
79 70 5 30 2 41 -17 61 -30 32 -99 34 -130 3z m91 -27 c18 -15 20 -21 11 -45
-12 -30 -18 -32 -55 -17 -31 11 -36 53 -8 69 23 14 27 14 52 -7z"/>
</g>
</svg>
