<?xml version="1.0" standalone="no"?>
<!DOCTYPE svg PUBLIC "-//W3C//DTD SVG 20010904//EN"
 "http://www.w3.org/TR/2001/REC-SVG-20010904/DTD/svg10.dtd">
<svg version="1.0" xmlns="http://www.w3.org/2000/svg"
 width="85.000000pt" height="57.000000pt" viewBox="0 0 85.000000 57.000000"
 preserveAspectRatio="xMidYMid meet">

<g transform="translate(0.000000,57.000000) scale(0.100000,-0.100000)"
fill="#000000" stroke="none">
<path d="M62 503 c-37 -98 -36 -113 2 -113 27 0 36 -21 36 -92 0 -44 -2 -48
-25 -48 -14 0 -29 -8 -35 -19 -11 -22 -14 -160 -2 -178 5 -7 55 -12 147 -14
l140 -3 5 54 c4 48 9 57 39 77 34 23 99 31 136 17 20 -8 40 -48 49 -96 l7 -38
134 0 135 0 -1 78 c-1 103 -8 126 -41 130 -31 4 -38 23 -38 109 l0 62 35 7
c19 3 35 12 35 18 0 7 -18 27 -41 45 -48 39 -72 37 -126 -13 -39 -35 -38 -56
2 -56 13 0 26 -4 29 -8 3 -5 2 -41 -1 -80 l-6 -72 -78 0 -79 0 0 40 0 40 64 0
c36 0 67 4 70 8 13 21 -170 162 -210 162 -19 0 -197 -127 -216 -154 -4 -6 -8
-21 -8 -33 0 -21 5 -23 45 -23 41 0 45 -2 45 -24 0 -22 -5 -24 -67 -29 -46 -3
-70 -1 -76 6 -4 7 -6 41 -5 77 3 63 4 65 31 68 15 2 27 9 26 15 0 13 -122 107
-137 107 -5 0 -14 -12 -20 -27z m696 -16 c23 -25 20 -37 -9 -37 -25 0 -27 -15
-18 -110 4 -47 8 -88 8 -92 1 -5 12 -8 26 -8 32 0 45 -31 45 -111 l0 -59 -115
0 -115 0 -6 27 c-19 90 -44 113 -124 113 -44 0 -65 -6 -98 -27 -40 -26 -42
-30 -42 -75 l0 -48 -125 0 c-143 0 -139 -3 -133 100 3 51 4 54 36 62 l32 9 0
73 c0 91 -5 106 -36 106 -13 0 -24 3 -24 8 0 19 22 82 28 82 4 0 25 -14 46
-32 32 -26 35 -33 22 -40 -13 -7 -16 -26 -16 -91 0 -45 4 -88 8 -95 11 -17
167 -5 183 14 6 7 9 25 7 41 -3 26 -7 28 -51 31 -32 2 -47 7 -44 15 5 17 185
157 202 157 17 0 157 -101 163 -117 3 -9 -12 -13 -52 -13 l-56 0 0 -60 0 -61
103 3 102 3 0 95 c0 91 -1 95 -22 98 -32 5 -29 19 10 42 40 25 39 25 65 -3z"/>
</g>
</svg>
