<?xml version="1.0" standalone="no"?>
<!DOCTYPE svg PUBLIC "-//W3C//DTD SVG 20010904//EN"
 "http://www.w3.org/TR/2001/REC-SVG-20010904/DTD/svg10.dtd">
<svg version="1.0" xmlns="http://www.w3.org/2000/svg"
 width="512.000000pt" height="512.000000pt" viewBox="0 0 512.000000 512.000000"
 preserveAspectRatio="xMidYMid meet">

<g transform="translate(0.000000,512.000000) scale(0.100000,-0.100000)"
fill="#000000" stroke="none">
<path d="M2519 4741 l-24 -19 -3 -309 -3 -308 -425 -420 c-302 -299 -425 -426
-424 -441 0 -12 9 -32 19 -45 17 -22 29 -24 115 -27 l96 -4 0 -196 c0 -109 4
-202 8 -208 27 -42 95 -35 112 11 6 15 10 109 10 211 l0 184 560 0 560 0 0
-630 0 -630 -49 0 -49 0 -4 116 c-4 158 1 154 -205 154 -150 0 -155 -1 -178
-25 -24 -23 -25 -31 -25 -135 l0 -110 -50 0 -50 0 0 110 c0 104 -1 112 -25
135 -23 24 -28 25 -178 25 -206 0 -201 4 -205 -154 l-4 -116 -48 0 -49 0 -3
306 -3 306 -24 19 c-30 24 -56 24 -81 -1 -18 -18 -20 -33 -20 -190 l0 -170
-90 0 -90 0 0 363 0 364 -23 21 c-22 20 -33 22 -159 22 -181 0 -179 1 -181
-140 l-2 -105 -52 -3 -53 -3 0 104 c0 95 -2 105 -23 125 -22 21 -33 22 -173
22 -144 0 -151 -1 -172 -23 -20 -21 -22 -34 -22 -126 l0 -102 -53 3 -52 3 -3
105 c-3 142 -1 140 -181 140 -195 0 -181 24 -181 -312 0 -327 -7 -311 129
-316 l91 -4 0 -959 c0 -946 0 -959 20 -979 20 -20 33 -20 1960 -20 1927 0
1940 0 1960 20 20 20 20 33 20 653 0 618 -1 634 -20 652 -27 24 -70 22 -92 -5
-17 -21 -18 -57 -18 -606 l0 -584 -425 0 -425 0 0 915 0 915 425 0 425 0 0
-194 c0 -180 1 -195 21 -220 25 -31 61 -34 89 -6 19 19 20 33 20 219 l0 199
91 4 c136 5 129 -12 129 317 0 336 14 311 -182 311 -179 0 -177 2 -180 -140
l-3 -105 -52 -3 -53 -3 0 104 c0 95 -2 105 -23 125 -22 21 -33 22 -173 22
-144 0 -151 -1 -172 -23 -20 -21 -22 -34 -22 -126 l0 -102 -52 3 -53 3 -2 105
c-2 141 0 140 -182 140 -199 0 -181 40 -181 -408 l0 -362 -90 0 -90 0 0 494 0
494 96 4 c86 3 98 5 115 27 10 13 19 33 19 45 1 15 -122 142 -425 441 l-425
420 0 73 0 72 283 0 c262 0 285 1 300 18 28 31 19 64 -38 147 -30 43 -55 82
-55 87 0 5 25 45 55 91 59 88 66 116 35 147 -19 19 -33 20 -344 20 -304 0
-325 -1 -347 -19z m515 -123 c-4 -7 -20 -32 -36 -55 -15 -23 -28 -50 -28 -60
0 -10 16 -42 35 -71 l36 -52 -206 0 -205 0 0 125 0 125 206 0 c161 0 204 -3
198 -12z m-129 -965 c187 -186 341 -341 343 -345 2 -5 -307 -8 -687 -8 -380 0
-691 2 -691 3 0 6 684 687 690 687 2 0 157 -152 345 -337z m-2313 -938 c4
-142 1 -139 176 -143 128 -3 139 -2 165 18 26 21 27 24 27 126 l0 104 65 0 65
0 0 -104 c0 -102 1 -105 27 -126 26 -20 37 -21 165 -18 175 4 172 1 176 143
l4 105 49 0 49 0 0 -180 0 -180 -535 0 -535 0 0 180 0 180 49 0 49 0 4 -105z
m3070 0 c4 -142 1 -139 176 -143 128 -3 139 -2 165 18 26 21 27 24 27 126 l0
104 65 0 65 0 0 -104 c0 -102 1 -105 27 -126 26 -20 37 -21 165 -18 175 4 172
1 176 143 l4 105 49 0 49 0 0 -180 0 -180 -535 0 -535 0 0 180 0 180 49 0 49
0 4 -105z m-2102 -1310 l0 -915 -425 0 -425 0 0 915 0 915 425 0 425 0 0 -915z
m307 540 c2 -55 5 -110 8 -121 8 -37 52 -46 195 -42 165 4 160 -1 160 155 l0
113 75 0 75 0 0 -112 c0 -62 4 -118 8 -124 17 -26 56 -34 172 -34 116 0 155 8
172 34 4 6 8 62 8 124 l0 112 75 0 75 0 0 -113 c0 -156 -5 -151 160 -155 143
-4 187 5 195 42 3 11 6 66 8 121 l2 100 88 3 87 3 0 -781 0 -780 -180 0 -180
0 0 318 c0 343 -5 383 -56 490 -32 64 -118 159 -183 201 -86 56 -154 74 -271
74 -117 0 -185 -18 -271 -74 -65 -42 -151 -137 -183 -201 -51 -107 -56 -147
-56 -490 l0 -318 -180 0 -180 0 0 780 0 781 88 -3 87 -3 2 -100z m623 -980 l0
-476 -152 3 -153 3 0 330 0 330 31 65 c38 80 82 132 141 167 41 24 107 51 126
53 4 0 7 -214 7 -475z m253 432 c72 -38 120 -91 161 -176 l31 -66 0 -330 0
-330 -152 -3 -153 -3 0 476 0 475 28 -6 c15 -4 53 -20 85 -37z"/>
<path d="M1075 2124 c-95 -23 -146 -63 -181 -139 -23 -48 -24 -60 -24 -285 0
-129 4 -240 8 -246 19 -29 56 -34 237 -34 181 0 218 5 237 34 4 6 8 117 8 246
0 256 -4 276 -64 347 -45 53 -157 92 -221 77z m123 -169 l32 -35 0 -185 0
-185 -115 0 -115 0 0 180 c0 202 6 225 62 254 48 24 96 14 136 -29z"/>
<path d="M843 1180 c-43 -18 -55 -68 -23 -100 18 -18 33 -20 138 -20 130 0
152 9 152 61 0 55 -19 64 -137 66 -59 2 -118 -2 -130 -7z"/>
<path d="M1036 959 c-31 -25 -34 -61 -6 -89 18 -18 33 -20 138 -20 103 0 121
3 135 18 23 25 21 68 -3 92 -18 18 -33 20 -129 20 -94 0 -112 -3 -135 -21z"/>
<path d="M3062 1564 c-28 -19 -30 -74 -4 -97 15 -14 41 -17 135 -17 107 0 118
2 137 22 27 29 25 54 -5 83 -23 23 -31 25 -132 25 -82 0 -114 -4 -131 -16z"/>
<path d="M1776 1401 c-11 -12 -16 -31 -14 -52 4 -48 33 -59 156 -59 96 0 105
2 127 25 14 13 25 29 25 35 0 16 -21 53 -34 62 -6 4 -63 8 -127 8 -101 0 -118
-2 -133 -19z"/>
<path d="M2060 3100 c-26 -26 -25 -64 2 -90 19 -18 35 -20 135 -20 100 0 115
2 133 20 11 11 20 31 20 45 0 14 -9 34 -20 45 -18 18 -33 20 -135 20 -102 0
-117 -2 -135 -20z"/>
<path d="M2451 3037 c-23 -12 -58 -38 -76 -59 -56 -61 -65 -113 -65 -353 0
-200 1 -214 21 -239 l20 -26 209 0 209 0 20 26 c20 25 21 39 21 239 0 241 -9
292 -65 353 -73 82 -200 107 -294 59z m168 -122 c52 -26 61 -64 61 -254 l0
-171 -120 0 -120 0 0 171 c0 188 9 227 59 254 34 19 85 19 120 0z"/>
<path d="M3925 2124 c-87 -22 -129 -50 -173 -118 -27 -41 -27 -42 -32 -280 -5
-257 -1 -288 41 -299 13 -4 108 -7 210 -7 173 0 188 1 213 21 l26 20 0 227 c0
126 -5 244 -10 264 -16 55 -69 119 -120 144 -46 23 -119 36 -155 28z m105
-153 c45 -33 50 -54 50 -243 l0 -178 -115 0 -115 0 0 180 c0 145 3 187 16 211
29 57 108 72 164 30z"/>
<path d="M3715 1178 c-27 -15 -35 -28 -35 -59 0 -49 25 -59 153 -59 104 0 119
2 137 20 28 28 25 64 -6 89 -23 18 -40 21 -128 21 -56 0 -110 -6 -121 -12z"/>
<path d="M3912 964 c-28 -19 -30 -74 -4 -97 15 -14 41 -17 133 -17 125 0 143
6 154 52 5 21 1 33 -19 52 -24 25 -31 26 -133 26 -82 0 -114 -4 -131 -16z"/>
</g>
</svg>
